<?xml version="1.0" encoding="utf-8"?>
<!-- Generator: Adobe Illustrator 23.0.1, SVG Export Plug-In . SVG Version: 6.00 Build 0)  -->
<svg version="1.1" id="Layer_1" xmlns="http://www.w3.org/2000/svg" xmlns:xlink="http://www.w3.org/1999/xlink" x="0px" y="0px"
	 viewBox="0 0 1603.1 1034.1" style="enable-background:new 0 0 1603.1 1034.1;" xml:space="preserve">
<style type="text/css">
	.st0{fill:#009DE0;}
	.st1{fill:#1B52CB;}
	.st2{fill:#29CFC9;}
	.st3{fill:#5A0EC4;}
	.st4{fill:#F95706;}
	.st5{fill:#FAB600;}
	.st6{fill:#009CDF;}
</style>
<path class="st0" d="M407.1,474.4V315.6h158.8v158.8H407.1z"/>
<path class="st1" d="M407.1,315.6c0-87.7,71.1-158.8,158.8-158.8v158.8H407.1z"/>
<path class="st0" d="M724.7,474.4v158.8H565.9V474.4H724.7z"/>
<path class="st1" d="M724.7,315.6v317.7c87.7,0,158.8-71.1,158.8-158.8V315.6H724.7z"/>
<path class="st0" d="M724.7,156.7H565.9v158.8h317.7C883.6,227.9,812.5,156.7,724.7,156.7z"/>
<path class="st2" d="M565.9,395L565.9,395c0,43.9-35.6,79.4-79.4,79.4h0c-43.9,0-79.4-35.6-79.4-79.4v0c0-43.9,35.6-79.4,79.4-79.4
	h0C530.4,315.6,565.9,351.1,565.9,395z"/>
<path class="st3" d="M565.9,474.4v158.8c-87.7,0-158.8-71.1-158.8-158.8L565.9,474.4L565.9,474.4z"/>
<path class="st1" d="M1201.2,156.7h-158.8v158.8h317.7C1360.1,227.9,1289,156.7,1201.2,156.7z"/>
<path class="st0" d="M1360.1,474.4h-158.8V315.6h158.8L1360.1,474.4z"/>
<path class="st0" d="M1042.4,156.7c-87.7,0-158.8,71.1-158.8,158.8v158.8h158.8V156.7z M1042.4,474.4h158.8v158.8h-158.8V474.4z"/>
<path class="st4" d="M1121.8,315.6L1121.8,315.6c-43.9,0-79.4-35.6-79.4-79.4v0c0-43.9,35.6-79.4,79.4-79.4h0
	c43.9,0,79.4,35.6,79.4,79.4v0C1201.3,280,1165.7,315.6,1121.8,315.6z"/>
<path class="st2" d="M1042.4,474.4H883.6c0,87.7,71.1,158.8,158.8,158.8c87.7,0,158.8-71.1,158.8-158.8H1042.4z"/>
<path class="st5" d="M883.6,474.4V315.6h158.8C1042.4,403.3,971.3,474.4,883.6,474.4L883.6,474.4z"/>
<path class="st4" d="M724.7,474.4c0,87.7-71.1,158.8-158.8,158.8V474.4H724.7z"/>
<path class="st6" d="M354.6,721.1c16.1,12,24.2,34.1,24.2,66.2c0,31.6-7.9,53.8-23.6,66.7c-15.7,12.8-36.1,19.3-61.1,19.3H243V703.1
	h47.4C317,703.1,338.4,709.1,354.6,721.1z M283.2,732.2V844h13.2c13.3,0,23.3-4.1,30.2-12.4c6.9-8.3,10.3-23,10.3-44.3
	c0-14.6-1.7-25.9-5.2-33.9s-8.1-13.5-14-16.6c-5.9-3-13.2-4.5-21.9-4.5L283.2,732.2z M447.6,680.3c4.3,4.2,6.5,9.5,6.5,15.8
	c0,6.4-2.2,11.7-6.5,15.8c-4.3,4.2-9.9,6.3-16.6,6.3c-6.7,0-12.2-2.1-16.5-6.3c-4.3-4.2-6.4-9.5-6.4-15.8c0-6.4,2.1-11.7,6.4-15.8
	c4.3-4.2,9.7-6.3,16.5-6.3C437.7,674.1,443.3,676.2,447.6,680.3z M450.6,742.8v130.4h-38.8V742.8H450.6z M563.1,742.8
	c7.8,2.6,15.2,6.6,21.6,11.8l-14.2,21.9c-10.7-6.7-21.4-10.1-32.2-10.1c-5.1,0-9,0.9-11.7,2.6c-2.6,1.5-4.1,4.3-4,7.2
	c-0.1,2.2,0.6,4.3,1.8,6c1.2,1.6,3.7,3.1,7.5,4.8c3.8,1.6,9.6,3.6,17.4,5.9c13.6,3.9,23.7,9,30.3,15.3c6.6,6.3,9.9,15,9.9,26.1
	c0,8.8-2.5,16.5-7.6,23c-5.1,6.5-12,11.5-20.9,14.8c-8.8,3.4-18.6,5.2-29.5,5.2c-10.4,0.1-20.8-1.7-30.6-5.2
	c-9.4-3.4-17.4-8.2-23.9-14.2l18.9-21.1c11,8.5,22.5,12.8,34.6,12.8c5.9,0,10.5-1.1,13.9-3.2c3.2-1.9,5.1-5.3,5-9.1
	c0-3.1-0.7-5.6-2-7.4c-1.3-1.8-3.8-3.5-7.6-5c-3.8-1.6-9.8-3.5-17.9-5.8c-12.9-3.8-22.6-9.1-29-15.8c-6.4-6.7-9.6-15.1-9.6-25
	c-0.1-7.3,2.2-14.4,6.5-20.3c4.3-6,10.6-10.7,18.7-14.2c8.1-3.5,17.5-5.3,28.1-5.3C545.8,738.6,554.6,740,563.1,742.8L563.1,742.8z
	 M701.1,867c-5.1,3.4-10.7,6-16.6,7.6c-6.1,1.8-12.4,2.7-18.8,2.7c-28.5-0.2-42.7-15.9-42.7-47.1v-60.4h-18.4v-27H623v-28.2
	l38.8-4.4v32.6h30l-4.2,27h-25.8v59.9c0,6,1,10.4,2.9,13s5.1,3.9,9.3,3.9c4.4,0,9.1-1.4,14-4.2L701.1,867z M807.6,740.9l-6.1,37.6
	c-3.9-1-7.8-1.6-11.8-1.7c-7.7,0-13.6,2.7-17.6,8c-4,5.3-7.2,13.3-9.4,23.9v64.6h-38.8V742.8h33.9l3.2,25.3
	c2.9-9,7.4-16.1,13.4-21.2s12.7-7.7,20.3-7.7C799,739.1,803.4,739.7,807.6,740.9L807.6,740.9z M867.9,680.3
	c4.3,4.2,6.5,9.5,6.5,15.8c0,6.4-2.2,11.7-6.5,15.8c-4.3,4.2-9.9,6.3-16.6,6.3c-6.7,0-12.2-2.1-16.5-6.3c-4.2-4.2-6.4-9.5-6.4-15.8
	c0-6.4,2.1-11.7,6.4-15.8c4.3-4.2,9.8-6.3,16.5-6.3C858,674.1,863.5,676.2,867.9,680.3z M870.9,742.8v130.4h-38.8V742.8L870.9,742.8
	z M992,742.6c7.5,2.8,14.4,6.8,20.4,12l-16.7,23.1c-8.2-6.2-16.4-9.3-24.8-9.3c-8.7,0-15.2,3.2-19.6,9.6c-4.4,6.4-6.6,16.7-6.6,30.9
	c0,13.8,2.2,23.5,6.6,29.2c4.4,5.7,10.8,8.6,19.1,8.6c4.1,0.1,8.2-0.7,12-2.1c4.5-1.9,8.9-4.1,13-6.8l16.9,24.1
	c-12.9,10.3-27.6,15.5-43.9,15.5c-13.3,0-24.7-2.8-34.4-8.5c-9.6-5.6-17.4-13.9-22.3-23.8c-5.2-10.2-7.9-22.2-7.9-36
	s2.6-26,7.9-36.6c4.9-10.3,12.7-18.9,22.3-24.9c9.7-6,20.9-9,33.7-9C976.7,738.6,984.8,739.9,992,742.6L992,742.6z M1120.4,867
	c-5.1,3.4-10.7,6-16.6,7.6c-6.1,1.8-12.4,2.7-18.8,2.7c-28.5-0.2-42.7-15.9-42.7-47.1v-60.4h-18.4v-27h18.4v-28.2l38.8-4.4v32.6h30
	l-4.2,27h-25.8v59.9c0,6,1,10.4,2.9,13s5.1,3.9,9.3,3.9c4.4,0,9.1-1.4,14-4.2L1120.4,867z"/>
<path class="st1" d="M1201.2,474.4v397.1c87.7,0,158.8-71.1,158.8-158.8V474.4H1201.2z"/>
</svg>
